<svg xmlns="http://www.w3.org/2000/svg" viewBox="0 0 1600 760" role="img" aria-labelledby="title desc">
  <title id="title">Placeholder EKE spectrum intercomparison across OceanLens training variants</title>
  <desc id="desc">A placeholder multi-model curve plot comparing HR, LR, CNO, v4, fine-tuning, Swin, DiT and EDM-style variants.</desc>
  <rect width="1600" height="760" fill="#f7fdff"/>
  <rect x="92" y="72" width="1350" height="560" fill="#ffffff" stroke="#c9dce6" stroke-width="2"/>
  <g stroke="#d9e8ef" stroke-width="1">
    <path d="M92 152H1442M92 232H1442M92 312H1442M92 392H1442M92 472H1442M92 552H1442"/>
    <path d="M242 72V632M392 72V632M542 72V632M692 72V632M842 72V632M992 72V632M1142 72V632M1292 72V632"/>
  </g>
  <g fill="#365666" font-family="Inter, Arial, sans-serif" font-size="28">
    <text x="92" y="38" font-size="34" font-weight="700" fill="#082b3b">EKE spectral energy by architecture</text>
    <text x="666" y="710">Wavenumber / spatial frequency</text>
    <text transform="translate(32 455) rotate(-90)">Energy density</text>
  </g>
  <g fill="#66808f" font-family="Inter, Arial, sans-serif" font-size="20">
    <text x="50" y="158">1.0</text><text x="50" y="238">0.8</text><text x="50" y="318">0.6</text>
    <text x="50" y="398">0.4</text><text x="50" y="478">0.2</text><text x="50" y="558">0.0</text>
    <text x="231" y="662">2</text><text x="381" y="662">4</text><text x="531" y="662">8</text>
    <text x="676" y="662">16</text><text x="824" y="662">32</text><text x="974" y="662">64</text>
    <text x="1112" y="662">128</text><text x="1262" y="662">256</text>
  </g>
  <g fill="none" stroke-linecap="round" stroke-linejoin="round" stroke-width="6">
    <path d="M120 112C260 130 360 140 474 168C596 198 716 232 830 286C970 352 1114 444 1418 584" stroke="#111827"/>
    <path d="M120 224C278 248 390 282 510 330C668 394 804 472 928 536C1050 598 1162 618 1418 624" stroke="#a7b7c2" stroke-dasharray="18 15"/>
    <path d="M120 160C258 178 376 194 508 234C640 274 760 326 900 390C1040 456 1185 522 1418 592" stroke="#0b6f9f"/>
    <path d="M120 148C260 164 390 182 526 218C654 252 792 306 928 364C1076 426 1220 500 1418 576" stroke="#00a6b4"/>
    <path d="M120 136C254 152 386 166 520 196C660 228 800 274 934 334C1088 402 1242 482 1418 558" stroke="#32b887"/>
    <path d="M120 130C270 142 404 154 544 184C694 216 842 260 978 318C1120 378 1260 462 1418 540" stroke="#8b5cf6"/>
    <path d="M120 124C268 138 408 146 560 172C716 198 872 238 1012 296C1160 358 1300 442 1418 522" stroke="#ef4444"/>
  </g>
  <g font-family="Inter, Arial, sans-serif" font-size="22">
    <rect x="1065" y="88" width="345" height="250" rx="10" fill="#ffffff" stroke="#c9dce6"/>
    <g transform="translate(1088 120)">
      <line x1="0" y1="0" x2="48" y2="0" stroke="#111827" stroke-width="6"/><text x="64" y="7" fill="#082b3b">HR target</text>
      <line x1="0" y1="34" x2="48" y2="34" stroke="#a7b7c2" stroke-width="6" stroke-dasharray="12 8"/><text x="64" y="41" fill="#082b3b">LR input</text>
      <line x1="0" y1="68" x2="48" y2="68" stroke="#0b6f9f" stroke-width="6"/><text x="64" y="75" fill="#082b3b">CNO</text>
      <line x1="0" y1="102" x2="48" y2="102" stroke="#00a6b4" stroke-width="6"/><text x="64" y="109" fill="#082b3b">v4_s1 FM</text>
      <line x1="0" y1="136" x2="48" y2="136" stroke="#32b887" stroke-width="6"/><text x="64" y="143" fill="#082b3b">Recoarsen FT</text>
      <line x1="0" y1="170" x2="48" y2="170" stroke="#8b5cf6" stroke-width="6"/><text x="64" y="177" fill="#082b3b">v7a Swin</text>
      <line x1="0" y1="204" x2="48" y2="204" stroke="#ef4444" stroke-width="6"/><text x="64" y="211" fill="#082b3b">v8a DiT</text>
    </g>
  </g>
  <text x="92" y="742" fill="#6b8390" font-family="Inter, Arial, sans-serif" font-size="22">
    Placeholder only. Replace with LIR-computed EKE spectra once synchronized.
  </text>
</svg>
